<?xml version="1.0" encoding="UTF-8"?>
<svg id="Layer_1" data-name="Layer 1" xmlns="http://www.w3.org/2000/svg" viewBox="0 0 839 280.2">
  <defs>
    <style>
      .cls-1 {
        fill: #43af4a;
        stroke-width: 0px;
      }
    </style>
  </defs>
  <g>
    <g>
      <circle class="cls-1" cx="713.44" cy="264.35" r="11.83"/>
      <path class="cls-1" d="M713.44,280.2c-8.74,0-15.85-7.11-15.85-15.85s7.11-15.84,15.85-15.84,15.85,7.11,15.85,15.84-7.11,15.85-15.85,15.85ZM713.44,256.54c-4.3,0-7.81,3.5-7.81,7.81s3.5,7.81,7.81,7.81,7.81-3.5,7.81-7.81-3.5-7.81-7.81-7.81Z"/>
    </g>
    <g>
      <circle class="cls-1" cx="756.77" cy="264.35" r="11.83"/>
      <path class="cls-1" d="M756.77,280.2c-8.74,0-15.85-7.11-15.85-15.85s7.11-15.84,15.85-15.84,15.85,7.11,15.85,15.84-7.11,15.85-15.85,15.85ZM756.77,256.54c-4.3,0-7.81,3.5-7.81,7.81s3.5,7.81,7.81,7.81,7.81-3.5,7.81-7.81-3.5-7.81-7.81-7.81Z"/>
    </g>
  </g>
  <g>
    <rect class="cls-1" x="781.97" y="141.04" width="18.76" height="105.72"/>
    <path class="cls-1" d="M772.87,265.12h-70.06c-9.97,0-19.04-6.32-23.1-16.11l-30.53-73.62h123.68v18.76h-95.6l19.77,47.67c1.14,2.76,3.41,4.54,5.77,4.54h70.06v18.76Z"/>
    <rect class="cls-1" x="809.82" y="175.39" width="29.17" height="18.76"/>
  </g>
</svg>