<?xml version="1.0" encoding="UTF-8"?>
<svg id="Complete_logo" data-name="Complete logo" xmlns="http://www.w3.org/2000/svg" viewBox="0 0 304.37 139.16">
  <defs>
    <style>
      .cls-1, .cls-2 {
        stroke-width: 0px;
      }

      .cls-2 {
        fill: #43af4a;
      }
    </style>
  </defs>
  <g>
    <path class="cls-1" d="M123.07,95.83V23.31h24.45c8.15,0,14.56,1.92,19.22,5.75,4.66,3.83,6.99,9.55,6.99,17.15s-2.33,13.47-6.99,17.41c-4.66,3.94-11.07,5.9-19.22,5.9h-9.95v26.31h-14.5ZM137.58,56.46h9.12c3.94,0,6.97-.83,9.12-2.49,2.14-1.66,3.21-4.21,3.21-7.67s-1.07-5.99-3.21-7.61c-2.14-1.62-5.18-2.43-9.12-2.43h-9.12v20.2Z"/>
    <path class="cls-1" d="M178.91,95.83V20.2h13.99v75.63h-13.99Z"/>
    <path class="cls-1" d="M225.74,97.17c-4.9,0-9.37-1.26-13.42-3.78-4.04-2.52-7.25-5.9-9.63-10.15-2.38-4.25-3.57-8.96-3.57-14.14,0-3.87.69-7.51,2.07-10.93,1.38-3.42,3.28-6.42,5.7-9.01,2.42-2.59,5.23-4.63,8.44-6.11,3.21-1.48,6.68-2.23,10.41-2.23,4.7,0,8.36.88,10.98,2.64,2.62,1.76,4.66,4.09,6.11,6.99v-8.5h13.88v53.87h-13.57v-8.81c-1.45,3.04-3.51,5.49-6.16,7.36-2.66,1.86-6.41,2.8-11.24,2.8ZM228.02,84.53c3.11,0,5.78-.71,8.03-2.12,2.24-1.42,3.99-3.3,5.23-5.65s1.86-4.9,1.86-7.67-.62-5.42-1.86-7.77c-1.24-2.35-2.99-4.25-5.23-5.7-2.25-1.45-4.92-2.17-8.03-2.17s-5.58.71-7.82,2.12c-2.25,1.42-3.99,3.3-5.23,5.65-1.24,2.35-1.86,4.94-1.86,7.77s.62,5.23,1.86,7.61,2.99,4.3,5.23,5.75c2.24,1.45,4.85,2.17,7.82,2.17Z"/>
    <path class="cls-1" d="M283.44,97.17c-9.05,0-16.51-3.14-22.38-9.43l9.43-8.6c3.94,4.42,8.15,6.63,12.64,6.63,2.42,0,4.26-.53,5.54-1.61,1.28-1.07,1.92-2.4,1.92-3.99,0-.97-.22-1.8-.67-2.49-.45-.69-1.38-1.35-2.8-1.97-1.42-.62-3.54-1.24-6.37-1.86-4.83-1.17-8.43-2.62-10.77-4.35-2.35-1.73-3.9-3.66-4.66-5.8-.76-2.14-1.14-4.35-1.14-6.63,0-4.69,1.78-8.61,5.34-11.76,3.56-3.14,8.48-4.71,14.76-4.71,4.35,0,8.08.66,11.19,1.97,3.11,1.31,6.04,3.77,8.81,7.36l-10.15,7.77c-1.31-2.07-2.78-3.56-4.4-4.45-1.62-.9-3.33-1.35-5.13-1.35-1.93,0-3.54.38-4.82,1.14-1.28.76-1.92,1.97-1.92,3.63,0,.9.41,1.78,1.24,2.64.83.86,2.83,1.71,6.01,2.54,5.25,1.31,9.25,2.85,12.02,4.61,2.76,1.76,4.66,3.75,5.7,5.96,1.04,2.21,1.55,4.66,1.55,7.36,0,3.31-.91,6.28-2.74,8.91s-4.32,4.7-7.46,6.22c-3.14,1.52-6.72,2.28-10.72,2.28Z"/>
  </g>
  <g>
    <g>
      <g>
        <circle class="cls-2" cx="34.3" cy="89.32" r="6.31"/>
        <path class="cls-2" d="M34.3,97.78c-4.66,0-8.46-3.8-8.46-8.46s3.79-8.46,8.46-8.46,8.46,3.79,8.46,8.46-3.79,8.46-8.46,8.46ZM34.3,85.16c-2.3,0-4.17,1.87-4.17,4.17s1.87,4.17,4.17,4.17,4.17-1.87,4.17-4.17-1.87-4.17-4.17-4.17Z"/>
      </g>
      <g>
        <circle class="cls-2" cx="57.43" cy="89.32" r="6.31"/>
        <path class="cls-2" d="M57.43,97.78c-4.66,0-8.46-3.8-8.46-8.46s3.79-8.46,8.46-8.46,8.46,3.79,8.46,8.46-3.79,8.46-8.46,8.46ZM57.43,85.16c-2.3,0-4.17,1.87-4.17,4.17s1.87,4.17,4.17,4.17,4.17-1.87,4.17-4.17-1.87-4.17-4.17-4.17Z"/>
      </g>
    </g>
    <g>
      <rect class="cls-2" x="70.88" y="23.5" width="10.01" height="56.44"/>
      <path class="cls-2" d="M66.02,89.74H28.63c-5.32,0-10.16-3.38-12.33-8.6L0,41.84h66.02v10.01H14.99l10.55,25.45c.61,1.47,1.82,2.42,3.08,2.42h37.4v10.01Z"/>
      <rect class="cls-2" x="85.75" y="41.84" width="15.57" height="10.01"/>
    </g>
  </g>
</svg>